<svg width="30" height="15" viewBox="0 0 30 15" fill="none" xmlns="http://www.w3.org/2000/svg">
<path id="vk_red copy" fill-rule="evenodd" clip-rule="evenodd" d="M14.6782 14.9369H16.4715C16.4715 14.9369 17.0128 14.8849 17.2893 14.624C17.5446 14.3836 17.5361 13.9333 17.5361 13.9333C17.5361 13.9333 17.5011 11.8249 18.6176 11.5139C19.7182 11.2075 21.1323 13.5517 22.6301 14.4532C23.7636 15.1356 24.6248 14.9861 24.6248 14.9861L28.6309 14.9369C28.6309 14.9369 30.7262 14.8237 29.7326 13.38C29.651 13.2621 29.1532 12.3114 26.7539 10.359C24.2413 8.31553 24.5782 8.64604 27.6045 5.11067C29.4466 2.95862 30.1838 1.644 29.9529 1.08139C29.7337 0.544768 28.3788 0.686814 28.3788 0.686814L23.8674 0.710952C23.8674 0.710952 23.5327 0.671031 23.2848 0.801008C23.0433 0.9282 22.8876 1.22529 22.8876 1.22529C22.8876 1.22529 22.1725 2.89085 21.2213 4.3076C19.2129 7.29707 18.4089 7.4549 18.0806 7.26922C17.3168 6.83658 17.5075 5.53217 17.5075 4.60469C17.5075 1.70713 18.0096 0.499276 16.5319 0.186403C16.0415 0.0833498 15.6802 0.0146477 14.4261 0.00350683C12.817 -0.0113477 11.4548 0.00722047 10.6836 0.338662C10.1699 0.558694 9.77372 1.04982 10.0152 1.07767C10.3129 1.11295 10.9887 1.23736 11.3467 1.66443C11.8086 2.2159 11.7927 3.45346 11.7927 3.45346C11.7927 3.45346 12.0586 6.8635 11.172 7.28778C10.5639 7.57745 9.73029 6.98512 7.93905 4.27232C7.02172 2.88342 6.32895 1.34784 6.32895 1.34784C6.32895 1.34784 6.19548 1.06096 5.95715 0.906846C5.66796 0.721165 5.26438 0.661747 5.26438 0.661747L0.977491 0.686814C0.977491 0.686814 0.334511 0.702597 0.0982924 0.947696C-0.112504 1.16587 0.081344 1.61708 0.081344 1.61708C0.081344 1.61708 3.43713 8.49842 7.23675 11.966C10.7218 15.1458 14.6782 14.9369 14.6782 14.9369Z" fill="white"/>
</svg>
